<svg width="96" height="120" viewBox="0 0 96 120" fill="none" xmlns="http://www.w3.org/2000/svg">
<path d="M65.9995 0V12H75.5095L53.1595 34.35C48.0595 31.575 42.2095 30 35.9845 30V30.03H5.96948V42.03H35.9995V41.97C49.2745 41.97 60.0295 52.725 60.0295 66V108.81H72.0295V66H71.9995C71.9995 56.7 68.4745 48.225 62.6695 41.835L83.9995 20.505V30.015H95.9995V0H65.9995Z" fill="#E5E5E5"/>
<path d="M84 72.78L83.88 74.235C82.68 93.78 65.925 108.945 46.17 107.955C27.735 107.025 13.215 91.815 12.075 73.395L12 72.18V12H60V0H0V72.36L0.15 74.97C1.695 100.215 22.725 120 48 120C71.88 120 92.1 102.36 95.565 79.26C95.91 76.995 96 74.7 96 72.42V36.03H84V72.78Z" fill="#E5E5E5"/>
</svg>
